<?xml version="1.0" standalone="no"?>
<!DOCTYPE svg PUBLIC "-//W3C//DTD SVG 20010904//EN"
 "http://www.w3.org/TR/2001/REC-SVG-20010904/DTD/svg10.dtd">
<svg version="1.0" xmlns="http://www.w3.org/2000/svg"
 width="1036.000000pt" height="1036.000000pt" viewBox="0 0 1036.000000 1036.000000"
 preserveAspectRatio="xMidYMid meet">
<metadata>
Created by potrace 1.14, written by Peter Selinger 2001-2017
</metadata>
<g transform="translate(0.000000,1036.000000) scale(0.100000,-0.100000)"
fill="#000000" stroke="none">
<path d="M1929 10328 c0 -43 -1 -1100 0 -1113 1 -7 441 -10 1301 -9 920 0
1300 -3 1303 -10 5 -16 -1 -4220 -6 -4286 -3 -30 -8 -93 -12 -140 -4 -47 -8
-98 -10 -115 -2 -34 -15 -130 -20 -154 -2 -9 -11 -52 -20 -96 -43 -208 -140
-422 -255 -560 -51 -62 -210 -214 -287 -275 -44 -35 -239 -164 -288 -191 -33
-18 -62 -35 -65 -38 -3 -3 -20 -14 -38 -23 -33 -17 -135 -72 -249 -135 -35
-19 -63 -30 -63 -26 0 4 -4 3 -8 -3 -6 -11 -95 -55 -392 -197 -105 -50 -187
-88 -200 -92 -3 -1 -30 -13 -60 -27 -30 -14 -77 -36 -105 -48 -27 -13 -87 -40
-132 -61 l-82 -39 19 -45 c11 -25 28 -64 39 -88 21 -48 136 -282 154 -312 7
-11 38 -67 71 -123 32 -56 62 -105 67 -108 5 -2 16 -20 24 -38 9 -18 25 -43
35 -54 11 -12 20 -24 20 -27 0 -5 102 -145 125 -172 5 -7 30 -39 55 -72 25
-33 48 -60 53 -61 7 0 30 10 154 66 28 13 57 24 62 24 6 0 11 5 11 10 0 6 3 9
8 8 9 -2 31 8 177 77 260 124 307 145 316 145 5 0 9 3 9 8 0 7 73 42 89 42 5
0 14 7 21 15 7 8 21 15 30 15 10 0 20 3 22 8 2 4 38 24 80 45 42 21 119 61
170 89 51 28 117 63 146 79 28 16 70 40 92 54 22 14 42 25 45 25 2 0 28 15 57
34 116 73 143 89 143 85 0 -2 11 5 23 17 12 11 35 27 50 35 15 8 29 17 32 20
3 3 28 21 55 39 28 19 52 37 53 42 2 4 8 8 13 8 5 0 17 6 26 14 10 8 63 50
118 94 394 314 636 643 773 1047 30 90 66 216 77 268 5 27 10 51 20 97 4 14
10 54 16 90 11 72 17 113 24 150 2 14 7 57 10 95 3 39 8 93 11 120 3 28 8 82
11 120 2 39 6 1333 8 2878 l3 2807 -1964 0 -1964 0 -1 -32z"/>
<path d="M7121 10343 c0 -10 -1 -41 -2 -69 -1 -29 1 -56 5 -62 3 -6 2 -13 -4
-17 -6 -4 -7 -11 -4 -17 4 -6 6 -30 5 -54 0 -24 -1 -66 -1 -94 0 -27 0 -58 0
-67 0 -10 0 -27 0 -38 2 -53 2 -71 0 -80 -4 -25 -2 -104 4 -113 3 -6 2 -13 -4
-17 -6 -4 -7 -11 -4 -17 4 -6 6 -30 5 -54 0 -24 -1 -66 -1 -94 0 -27 0 -58 0
-67 0 -10 0 -27 0 -38 2 -53 2 -71 0 -80 -4 -25 -2 -104 4 -113 3 -6 2 -13 -4
-17 -6 -4 -7 -11 -4 -17 4 -6 6 -31 5 -57 -3 -112 -3 -140 3 -150 4 -5 2 -12
-3 -16 -6 -3 -7 -15 -2 -28 4 -12 4 -35 1 -52 -3 -16 -3 -40 1 -52 5 -12 4
-25 -1 -28 -5 -3 -6 -16 -1 -28 4 -12 4 -35 1 -52 -3 -16 -3 -40 1 -52 5 -12
4 -25 -1 -28 -5 -3 -6 -16 -1 -28 4 -12 4 -35 1 -52 -3 -16 -3 -40 1 -52 5
-12 4 -25 -1 -28 -5 -3 -6 -16 -2 -28 4 -12 6 -37 5 -54 -6 -72 -5 -131 1
-141 3 -6 2 -13 -4 -17 -6 -4 -7 -11 -4 -17 4 -6 6 -30 5 -54 0 -24 -1 -66 -1
-94 0 -27 0 -58 0 -67 0 -10 0 -27 0 -38 2 -53 2 -71 0 -80 -4 -25 -2 -104 4
-113 3 -6 2 -13 -4 -17 -6 -4 -7 -11 -4 -17 4 -6 6 -30 5 -54 0 -24 -1 -66 -1
-94 0 -27 0 -58 0 -67 0 -10 0 -27 0 -38 2 -53 2 -71 0 -80 -4 -25 -2 -104 4
-113 3 -6 2 -13 -4 -17 -6 -4 -7 -11 -4 -17 4 -6 6 -31 5 -57 -3 -112 -3 -140
3 -150 4 -5 2 -12 -3 -16 -6 -3 -7 -15 -2 -28 4 -12 4 -35 1 -52 -3 -16 -3
-40 1 -52 5 -12 4 -25 -1 -28 -5 -3 -6 -16 -1 -28 4 -12 4 -35 1 -52 -3 -16
-3 -40 1 -52 5 -12 4 -25 -1 -28 -5 -3 -6 -16 -1 -28 4 -12 4 -35 1 -52 -3
-16 -3 -40 1 -52 5 -12 4 -25 -1 -28 -5 -3 -6 -16 -2 -28 4 -12 6 -37 5 -54
-6 -72 -5 -131 1 -141 3 -6 2 -13 -4 -17 -6 -4 -7 -11 -4 -17 4 -6 6 -30 5
-54 0 -24 -1 -66 -1 -94 0 -27 0 -58 0 -67 0 -10 0 -27 0 -38 2 -53 2 -71 0
-80 -4 -25 -2 -104 4 -113 3 -6 2 -13 -4 -17 -6 -4 -7 -11 -4 -17 4 -6 6 -30
5 -54 0 -24 -1 -66 -1 -94 0 -27 0 -58 0 -67 0 -10 0 -27 0 -38 2 -53 2 -71 0
-80 -4 -25 -2 -104 4 -113 3 -6 2 -13 -4 -17 -6 -4 -7 -11 -4 -17 4 -6 6 -31
5 -57 -1 -25 -1 -57 0 -71 0 -14 0 -31 0 -37 -4 -65 -3 -112 3 -121 3 -6 2
-13 -4 -17 -6 -4 -7 -11 -4 -17 4 -6 6 -30 6 -54 -4 -100 -4 -150 -2 -159 1
-5 2 -12 1 -15 -1 -3 -4 -77 -6 -165 -6 -206 -19 -400 -40 -560 -2 -16 -6 -50
-9 -75 -3 -25 -7 -59 -10 -76 -3 -17 -8 -46 -10 -65 -3 -19 -7 -44 -10 -55 -2
-12 -7 -37 -10 -55 -10 -64 -35 -175 -61 -274 -15 -55 -29 -107 -31 -115 -2
-8 -17 -55 -34 -105 -17 -49 -33 -94 -34 -100 -13 -46 -100 -242 -154 -348
-76 -147 -214 -362 -286 -444 -6 -7 -15 -18 -21 -25 -63 -82 -255 -283 -360
-377 -94 -84 -288 -239 -333 -266 -9 -5 -21 -15 -27 -21 -23 -25 -389 -260
-515 -332 -19 -11 -79 -45 -134 -76 -54 -31 -102 -56 -107 -56 -5 0 -9 -4 -9
-10 0 -5 -9 -10 -20 -10 -11 0 -20 -3 -20 -7 0 -5 -10 -13 -23 -19 -12 -5 -69
-35 -127 -66 -148 -78 -249 -128 -256 -127 -4 0 -10 -3 -13 -8 -3 -5 -132 -72
-286 -148 -154 -76 -273 -140 -265 -143 8 -3 29 -16 46 -29 17 -12 36 -23 42
-23 6 0 12 -3 14 -8 4 -11 154 -102 167 -102 6 0 11 -5 11 -10 0 -6 8 -14 18
-17 9 -4 49 -25 87 -48 39 -23 95 -55 125 -71 30 -16 57 -31 60 -34 14 -14
193 -108 452 -237 l247 -123 44 19 c69 30 404 195 485 240 39 22 72 37 72 34
0 -3 8 1 18 9 9 9 44 30 77 47 33 17 85 46 115 63 30 17 72 41 92 52 20 12 64
38 98 59 34 20 66 37 71 37 5 0 9 4 9 9 0 5 14 14 30 21 16 7 30 16 30 21 0 5
5 9 10 9 14 0 298 191 357 240 7 6 29 22 50 36 21 14 40 28 43 32 3 4 30 26
60 49 56 43 70 54 174 146 33 29 69 60 80 70 50 44 199 193 267 268 41 45 81
89 89 98 59 63 290 373 290 390 0 5 6 14 14 20 26 22 125 193 220 381 132 263
252 591 321 880 9 36 18 74 21 85 3 11 6 29 8 40 2 11 8 45 14 75 7 30 14 69
17 85 3 17 7 41 10 55 3 14 7 43 10 65 2 22 6 51 9 65 3 14 8 50 11 80 3 30 8
66 9 80 4 27 13 131 21 224 15 182 17 592 17 3286 -1 1625 -1 2963 -1 2973 -1
16 -39 17 -660 17 -622 0 -660 -1 -660 -17z"/>
</g>
</svg>
